<?xml version="1.0" encoding="UTF-8"?>
<svg id="Layer_1" data-name="Layer 1" xmlns="http://www.w3.org/2000/svg" viewBox="0 0 400 200">
  <defs>
    <style>
      .cls-1, .cls-2 {
        fill: #63f;
      }

      .cls-2 {
        font-family: TwCenMTStd, 'Tw Cen MT Std';
        font-size: 29.86px;
      }

      .cls-3 {
        letter-spacing: -.02em;
      }
    </style>
  </defs>
  <g>
    <g>
      <path class="cls-1" d="m84.94,97.74l34.35,34.35h0c-9.18,9.18-24.07,9.18-33.25,0l-25.12-25.12h0c-9.18-9.18-9.18-24.07,0-33.25h0s25.12-25.13,25.12-25.13c9.18-9.18,24.07-9.18,33.25,0h0s-34.35,34.35-34.35,34.35c-4.08,4.08-4.08,10.7,0,14.79Z"/>
      <path class="cls-1" d="m39.85,110.08l5.77,15.08,5.67-15.08v-38h-11.44v38Zm0-54.55v9.87h11.44v-9.87h-11.44Z"/>
    </g>
    <g>
      <path class="cls-1" d="m108.96,70.48h7.75v15.19h.11l11.91-15.19h9.51l-13.66,17.17,14.24,18.79h-9.32l-12.68-16.83h-.11v16.83h-7.75v-35.96Z"/>
      <path class="cls-1" d="m182.75,70.48h7.59v35.96h-7.55l-16.44-23.28v23.28h-7.75v-35.96h7.67l16.49,23.12v-23.12Z"/>
      <path class="cls-1" d="m197.63,70.48h20.24v7.12h-12.49v7.26h12.49v7.01h-12.49v7.45h12.49v7.12h-20.24v-35.96Z"/>
      <path class="cls-1" d="m221.98,70.48h24.19v7.64h-8.24v28.32h-7.75v-28.32h-8.19v-7.64Z"/>
      <path class="cls-1" d="m251.23,70.48h7.75v13.86h12.74v-13.86h7.75v35.96h-7.75v-14.3h-12.74v14.3h-7.75v-35.96Z"/>
      <path class="cls-1" d="m286.92,69.99h7.64v21.99c0,2.04.57,3.69,1.7,4.93,1.13,1.24,2.62,1.86,4.47,1.86,2.12,0,3.76-.63,4.93-1.88,1.17-1.25,1.75-3.02,1.75-5.3v-21.61h7.61v23.28c0,2.05-.53,4.17-1.59,6.37-1.06,2.2-2.69,3.88-4.89,5.05-2.2,1.17-4.66,1.75-7.38,1.75-4.93,0-8.54-1.37-10.82-4.12-2.28-2.75-3.42-5.64-3.42-8.67v-23.67Z"/>
      <path class="cls-1" d="m322.44,70.48h10.48c4.38,0,7.37.91,8.97,2.74,1.6,1.82,2.41,3.96,2.41,6.4,0,1.55-.29,2.86-.88,3.93-.58,1.07-1.52,2.15-2.82,3.24,2.48.86,4.24,2.12,5.27,3.8,1.03,1.67,1.55,3.46,1.55,5.36,0,3.31-1.13,5.88-3.39,7.73-2.26,1.85-5.45,2.77-9.55,2.77h-12.04v-35.96Zm7.75,6.03v7.89h1.77c1.31,0,2.41-.42,3.3-1.25s1.34-1.86,1.34-3.09c0-.99-.44-1.83-1.31-2.51s-1.96-1.03-3.27-1.03h-1.83Zm0,14v9.92h2.78c4.25,0,6.37-1.56,6.37-4.67,0-1.68-.52-2.98-1.55-3.89-1.03-.91-2.51-1.36-4.44-1.36h-3.16Z"/>
      <path class="cls-1" d="m142.99,95.23l4.3,11.22,4.23-11.22v-28.36h-8.53v28.36Zm0-40.7v7.36h8.53v-7.36h-8.53Z"/>
    </g>
  </g>
  <text class="cls-2" transform="translate(239.94 134.68)"><tspan x="0" y="0">Creati</tspan><tspan class="cls-3" x="74.02" y="0">v</tspan><tspan x="86.5" y="0">e </tspan></text>
</svg>